<svg width="42" height="42" viewBox="0 0 42 42" fill="none" xmlns="http://www.w3.org/2000/svg">
<path d="M35.5031 9.1875H30.1875C29.8394 9.1875 29.5056 9.32578 29.2594 9.57192C29.0133 9.81806 28.875 10.1519 28.875 10.5C28.875 10.8481 29.0133 11.1819 29.2594 11.4281C29.5056 11.6742 29.8394 11.8125 30.1875 11.8125H35.5031C35.8397 11.8294 36.1569 11.975 36.3891 12.2194C36.6212 12.4637 36.7504 12.788 36.75 13.125V30.3188C36.7341 30.6443 36.5976 30.9523 36.3671 31.1828C36.1367 31.4132 35.8287 31.5497 35.5031 31.5656H6.5625C6.22548 31.566 5.90121 31.4368 5.65687 31.2047C5.41254 30.9726 5.26685 30.6553 5.25 30.3188V28.875C5.25 28.5269 5.11172 28.1931 4.86558 27.9469C4.61944 27.7008 4.2856 27.5625 3.9375 27.5625C3.5894 27.5625 3.25556 27.7008 3.00942 27.9469C2.76328 28.1931 2.625 28.5269 2.625 28.875V30.2531C2.64222 31.286 3.06465 32.2707 3.80121 32.995C4.53778 33.7193 5.52948 34.1251 6.5625 34.125H35.5688C36.5789 34.0914 37.5374 33.6707 38.2459 32.95C38.9545 32.2293 39.3587 31.2637 39.375 30.2531V13.125C39.3751 12.092 38.9693 11.1003 38.245 10.3637C37.5207 9.62715 36.536 9.20472 35.5031 9.1875Z" fill="#67AFAC"/>
<path d="M3.9375 24.9375C4.2856 24.9375 4.61944 24.7992 4.86558 24.5531C5.11172 24.3069 5.25 23.9731 5.25 23.625V17.0625H32.8125C33.1606 17.0625 33.4944 16.9242 33.7406 16.6781C33.9867 16.4319 34.125 16.0981 34.125 15.75C34.125 15.4019 33.9867 15.0681 33.7406 14.8219C33.4944 14.5758 33.1606 14.4375 32.8125 14.4375H5.25V13.125C5.25 12.7769 5.38828 12.4431 5.63442 12.1969C5.88056 11.9508 6.2144 11.8125 6.5625 11.8125H24.9375C25.2856 11.8125 25.6194 11.6742 25.8656 11.4281C26.1117 11.1819 26.25 10.8481 26.25 10.5C26.25 10.1519 26.1117 9.81806 25.8656 9.57192C25.6194 9.32578 25.2856 9.1875 24.9375 9.1875H6.5625C5.51821 9.1875 4.51669 9.60234 3.77827 10.3408C3.03984 11.0792 2.625 12.0807 2.625 13.125V23.625C2.625 23.9731 2.76328 24.3069 3.00942 24.5531C3.25556 24.7992 3.5894 24.9375 3.9375 24.9375ZM9.1875 26.25C8.8394 26.25 8.50556 26.3883 8.25942 26.6344C8.01328 26.8806 7.875 27.2144 7.875 27.5625C7.875 27.9106 8.01328 28.2444 8.25942 28.4906C8.50556 28.7367 8.8394 28.875 9.1875 28.875H14.4375C14.7856 28.875 15.1194 28.7367 15.3656 28.4906C15.6117 28.2444 15.75 27.9106 15.75 27.5625C15.75 27.2144 15.6117 26.8806 15.3656 26.6344C15.1194 26.3883 14.7856 26.25 14.4375 26.25H9.1875Z" fill="#67AFAC"/>
</svg>
