<svg width="38" height="26" viewBox="0 0 38 26" fill="none" xmlns="http://www.w3.org/2000/svg">
<path d="M37.253 20.7533L36.4886 8.72203C36.4882 8.70268 36.4875 8.68335 36.4864 8.66402C36.488 8.62629 36.4897 8.58844 36.4897 8.55C36.4873 6.28319 35.5858 4.10991 33.983 2.507C32.3801 0.90409 30.2069 0.00248166 27.9401 0C26.0299 0 24.7132 0.639492 23.6174 1.40871C23.5034 1.3732 23.3917 1.33805 23.2832 1.30418C22.1774 0.955547 21.2211 0.654961 19.3676 0.552304C19.3455 0.55125 19.3242 0.551249 19.3023 0.551249H17.9522C17.9309 0.551249 17.9089 0.55125 17.8869 0.552304C16.0339 0.654843 15.0783 0.955547 13.972 1.30418C13.8634 1.33809 13.7522 1.37313 13.6383 1.4093C12.5414 0.640078 11.2256 0 9.315 0C7.04812 0.0027913 4.8749 0.904581 3.27203 2.50756C1.66916 4.11054 0.767519 6.28383 0.764883 8.5507C0.764883 8.58844 0.766054 8.6257 0.768633 8.65922C0.767695 8.67937 0.765938 8.70023 0.765938 8.72215L0.00211 20.7533C0.00105532 20.7779 0 20.8031 0 20.8279C0.00142691 22.0534 0.488958 23.2284 1.35563 24.095C2.2223 24.9616 3.39733 25.449 4.62293 25.4503H7.03664C7.23613 25.4503 7.43237 25.3997 7.60697 25.3032C7.78157 25.2067 7.92883 25.0675 8.03496 24.8986L12.8877 17.1572H24.3676L29.2213 24.8986C29.3273 25.0675 29.4744 25.2068 29.649 25.3033C29.8235 25.3998 30.0197 25.4504 30.2191 25.4503H32.6323C33.8579 25.4492 35.0331 24.9619 35.8998 24.0953C36.7666 23.2286 37.2541 22.0535 37.2553 20.8279C37.2551 20.8031 37.2546 20.7779 37.253 20.7533ZM32.6323 23.0936H30.8709L26.0184 15.3527C25.9123 15.1837 25.7649 15.0443 25.5902 14.9477C25.4155 14.8511 25.2192 14.8005 25.0195 14.8004H12.2355C12.036 14.8005 11.8397 14.8512 11.6651 14.9478C11.4905 15.0444 11.3432 15.1837 11.2371 15.3527L6.38437 23.0936H4.62363C4.02862 23.0929 3.45767 22.8585 3.03378 22.441C2.60988 22.0234 2.36696 21.4561 2.35734 20.8611L3.12012 8.84473C3.12189 8.83019 3.1226 8.81554 3.12223 8.8009C3.12457 8.76855 3.12656 8.7368 3.12773 8.70223C3.12832 8.68266 3.12891 8.6618 3.12832 8.64199C3.12821 8.61125 3.12637 8.58054 3.12281 8.55C3.12477 6.90802 3.77791 5.33385 4.93896 4.17279C6.10002 3.01173 7.67419 2.35859 9.31617 2.35664C10.7392 2.35664 11.6646 2.84766 12.697 3.64101C12.8437 3.75379 13.0149 3.83042 13.1967 3.86469C13.3785 3.89896 13.5659 3.88989 13.7435 3.83824C14.0855 3.7391 14.3907 3.64254 14.6811 3.55172C15.7064 3.22828 16.4494 2.99496 17.9863 2.9073H19.2713C20.8077 2.99437 21.5508 3.2284 22.5764 3.55172C22.8668 3.64254 23.1727 3.7391 23.5139 3.83824C23.6915 3.88999 23.8788 3.8991 24.0606 3.86483C24.2424 3.83056 24.4135 3.75387 24.56 3.64101C25.5928 2.84766 26.5182 2.35664 27.9409 2.35664C29.5806 2.35769 31.1531 3.00859 32.3139 4.16677C33.4747 5.32494 34.1291 6.89597 34.1338 8.5357C34.1314 8.57086 34.1293 8.6059 34.1293 8.64199C34.1282 8.65807 34.1282 8.6742 34.1293 8.69027C34.1292 8.71702 34.1307 8.74375 34.1338 8.77031C34.1338 8.79492 34.1347 8.82012 34.1359 8.84473L34.8997 20.8611C34.8897 21.4561 34.6465 22.0234 34.2224 22.4409C33.7984 22.8584 33.2274 23.0928 32.6323 23.0936Z" fill="#67AFAC"/>
<path d="M28.8682 10.466C29.1848 10.4659 29.4943 10.5596 29.7577 10.7354C30.021 10.9112 30.2263 11.1611 30.3476 11.4536C30.4689 11.746 30.5008 12.0679 30.4391 12.3785C30.3775 12.689 30.2251 12.9743 30.0013 13.1983C29.7775 13.4223 29.4923 13.5748 29.1818 13.6367C28.8713 13.6986 28.5494 13.667 28.2568 13.5459C27.9643 13.4248 27.7142 13.2197 27.5382 12.9565C27.3622 12.6933 27.2683 12.3838 27.2682 12.0671C27.2681 11.6427 27.4366 11.2356 27.7367 10.9353C28.0367 10.6351 28.4437 10.4663 28.8682 10.466ZM28.8692 5.30273C29.1857 5.30266 29.4952 5.39646 29.7584 5.57225C30.0216 5.74804 30.2268 5.99794 30.3479 6.29034C30.4691 6.58274 30.5009 6.9045 30.4392 7.21495C30.3775 7.5254 30.2251 7.81058 30.0014 8.03443C29.7776 8.25828 29.4925 8.41075 29.182 8.47255C28.8716 8.53436 28.5498 8.50272 28.2574 8.38164C27.965 8.26057 27.715 8.05549 27.5391 7.79234C27.3632 7.52919 27.2693 7.2198 27.2693 6.90328C27.2692 6.47888 27.4378 6.07185 27.7378 5.7717C28.0378 5.47155 28.4448 5.30286 28.8692 5.30273ZM31.45 7.88414C31.7666 7.88402 32.0762 7.97781 32.3395 8.15364C32.6028 8.32946 32.808 8.57943 32.9292 8.87191C33.0504 9.1644 33.0822 9.48626 33.0204 9.7968C32.9587 10.1073 32.8063 10.3926 32.5824 10.6164C32.3585 10.8403 32.0733 10.9928 31.7627 11.0545C31.4522 11.1162 31.1303 11.0845 30.8378 10.9633C30.5454 10.8421 30.2954 10.6368 30.1196 10.3735C29.9437 10.1102 29.85 9.80071 29.8501 9.4841C29.8502 9.0598 30.0188 8.65292 30.3188 8.3529C30.6189 8.05287 31.0257 7.88426 31.45 7.88414ZM26.2862 7.88414C26.6028 7.88402 26.9123 7.97781 27.1756 8.15364C27.4389 8.32946 27.6441 8.57943 27.7654 8.87191C27.8866 9.1644 27.9183 9.48626 27.8566 9.7968C27.7948 10.1073 27.6424 10.3926 27.4185 10.6164C27.1946 10.8403 26.9094 10.9928 26.5989 11.0545C26.2883 11.1162 25.9665 11.0845 25.674 10.9633C25.3815 10.8421 25.1315 10.6368 24.9557 10.3735C24.7799 10.1102 24.6861 9.80071 24.6862 9.4841C24.6863 9.05977 24.8549 8.65285 25.155 8.35282C25.455 8.05279 25.862 7.8842 26.2863 7.88414H26.2862ZM8.56144 6.99973H6.20527V8.64973H4.55469V11.0062H6.20527V12.6562H8.56144V11.0062H10.2112V8.64973H8.56144V6.99973Z" fill="#67AFAC"/>
</svg>
