<svg width="63" height="68" viewBox="0 0 63 68" fill="none" xmlns="http://www.w3.org/2000/svg">
<path d="M30.1079 10.8822C30.8767 10.0523 32.1233 10.0523 32.8921 10.8822L55.7016 35.502C56.4705 36.3318 57.717 36.3318 58.4859 35.502C59.2547 34.6721 59.2547 33.3266 58.4859 32.4968L35.6764 7.87696C33.3698 5.38736 29.6302 5.38737 27.3236 7.87696L4.51413 32.4968C3.74529 33.3266 3.74529 34.6721 4.51413 35.502C5.28298 36.3318 6.52952 36.3318 7.29837 35.502L30.1079 10.8822Z" fill="#67AFAC"/>
<path d="M31.5 15.39L52.9174 38.5072C52.9954 38.5914 53.0751 38.6727 53.1562 38.7512V56.3119C53.1562 59.2459 50.9526 61.6244 48.2344 61.6244H39.375C38.2877 61.6244 37.4062 60.673 37.4062 59.4994V46.7494C37.4062 45.5757 36.5248 44.6244 35.4375 44.6244H27.5625C26.4752 44.6244 25.5938 45.5757 25.5938 46.7494V59.4994C25.5938 60.673 24.7123 61.6244 23.625 61.6244H14.7656C12.0473 61.6244 9.84375 59.2459 9.84375 56.3119V38.7512C9.92493 38.6727 10.0046 38.5914 10.0826 38.5072L31.5 15.39Z" fill="#67AFAC"/>
</svg>
