<svg width="28" height="25" viewBox="0 0 28 25" fill="none" xmlns="http://www.w3.org/2000/svg">
<path d="M4.375 15.625C3.68277 15.625 3.00608 15.4417 2.43051 15.0983C1.85493 14.755 1.40633 14.2669 1.14142 13.6959C0.876516 13.1249 0.807205 12.4965 0.942253 11.8903C1.0773 11.2842 1.41064 10.7273 1.90013 10.2903C2.38961 9.85325 3.01325 9.55563 3.69219 9.43505C4.37112 9.31447 5.07485 9.37635 5.71439 9.61288C6.35393 9.8494 6.90056 10.2499 7.28515 10.7638C7.66973 11.2777 7.875 11.8819 7.875 12.5C7.875 13.3288 7.50625 14.1237 6.84988 14.7097C6.1935 15.2958 5.30326 15.625 4.375 15.625ZM4.375 10.9375C4.02888 10.9375 3.69054 11.0291 3.40275 11.2008C3.11497 11.3725 2.89067 11.6165 2.75821 11.9021C2.62576 12.1876 2.5911 12.5017 2.65863 12.8048C2.72615 13.1079 2.89282 13.3863 3.13756 13.6049C3.38231 13.8234 3.69413 13.9722 4.03359 14.0325C4.37306 14.0928 4.72493 14.0618 5.0447 13.9436C5.36447 13.8253 5.63778 13.625 5.83007 13.3681C6.02237 13.1111 6.125 12.809 6.125 12.5C6.125 12.0856 5.94063 11.6882 5.61244 11.3951C5.28425 11.1021 4.83913 10.9375 4.375 10.9375ZM14 15.625C13.3078 15.625 12.6311 15.4417 12.0555 15.0983C11.4799 14.755 11.0313 14.2669 10.7664 13.6959C10.5015 13.1249 10.4322 12.4965 10.5673 11.8903C10.7023 11.2842 11.0356 10.7273 11.5251 10.2903C12.0146 9.85325 12.6383 9.55563 13.3172 9.43505C13.9961 9.31447 14.6999 9.37635 15.3394 9.61288C15.9789 9.8494 16.5256 10.2499 16.9101 10.7638C17.2947 11.2777 17.5 11.8819 17.5 12.5C17.5 13.3288 17.1313 14.1237 16.4749 14.7097C15.8185 15.2958 14.9283 15.625 14 15.625ZM14 10.9375C13.6539 10.9375 13.3155 11.0291 13.0278 11.2008C12.74 11.3725 12.5157 11.6165 12.3832 11.9021C12.2508 12.1876 12.2161 12.5017 12.2836 12.8048C12.3512 13.1079 12.5178 13.3863 12.7626 13.6049C13.0073 13.8234 13.3191 13.9722 13.6586 14.0325C13.9981 14.0928 14.3499 14.0618 14.6697 13.9436C14.9895 13.8253 15.2628 13.625 15.4551 13.3681C15.6474 13.1111 15.75 12.809 15.75 12.5C15.75 12.0856 15.5656 11.6882 15.2374 11.3951C14.9092 11.1021 14.4641 10.9375 14 10.9375ZM23.625 15.625C22.9328 15.625 22.2561 15.4417 21.6805 15.0983C21.1049 14.755 20.6563 14.2669 20.3914 13.6959C20.1265 13.1249 20.0572 12.4965 20.1923 11.8903C20.3273 11.2842 20.6606 10.7273 21.1501 10.2903C21.6396 9.85325 22.2633 9.55563 22.9422 9.43505C23.6211 9.31447 24.3249 9.37635 24.9644 9.61288C25.6039 9.8494 26.1506 10.2499 26.5351 10.7638C26.9197 11.2777 27.125 11.8819 27.125 12.5C27.125 13.3288 26.7563 14.1237 26.0999 14.7097C25.4435 15.2958 24.5533 15.625 23.625 15.625ZM23.625 10.9375C23.2789 10.9375 22.9405 11.0291 22.6528 11.2008C22.365 11.3725 22.1407 11.6165 22.0082 11.9021C21.8758 12.1876 21.8411 12.5017 21.9086 12.8048C21.9762 13.1079 22.1428 13.3863 22.3876 13.6049C22.6323 13.8234 22.9441 13.9722 23.2836 14.0325C23.6231 14.0928 23.9749 14.0618 24.2947 13.9436C24.6145 13.8253 24.8878 13.625 25.0801 13.3681C25.2724 13.1111 25.375 12.809 25.375 12.5C25.375 12.0856 25.1906 11.6882 24.8624 11.3951C24.5342 11.1021 24.0891 10.9375 23.625 10.9375Z" fill="#67AFAC"/>
</svg>
