<svg width="37" height="37" viewBox="0 0 37 37" fill="none" xmlns="http://www.w3.org/2000/svg">
<path d="M19.0755 6.56539C17.5242 6.47404 15.9702 6.68912 14.5021 7.19836C13.034 7.70759 11.6805 8.50101 10.519 9.53331C8.17331 11.6181 6.75185 14.5494 6.56736 17.6823C6.38287 20.8151 7.45046 23.893 9.53528 26.2387C11.6201 28.5844 14.5514 30.0059 17.6842 30.1904C17.9159 30.2035 18.1482 30.2035 18.3799 30.1904C20.202 30.1798 21.9976 29.7533 23.6299 28.9435C23.9414 28.7869 24.178 28.5129 24.2875 28.1818C24.397 27.8508 24.3706 27.4897 24.2139 27.1782C24.0573 26.8667 23.7833 26.6301 23.4522 26.5206C23.1212 26.411 22.7602 26.4375 22.4486 26.5941C21.008 27.3089 19.4051 27.6331 17.8 27.5342C16.1949 27.4354 14.6438 26.9169 13.3019 26.0307C11.96 25.1445 10.8742 23.9216 10.153 22.4842C9.43183 21.0468 9.10058 19.4453 9.19236 17.8398C9.26099 16.6325 9.56725 15.4507 10.0936 14.3621C10.6199 13.2735 11.3559 12.2995 12.2595 11.4959C13.163 10.6924 14.2163 10.0751 15.3589 9.67945C16.5015 9.28381 17.711 9.11761 18.918 9.19039C20.5143 9.28313 22.0587 9.79087 23.3987 10.6634C24.7386 11.536 25.8276 12.7431 26.558 14.1655C27.2884 15.5879 27.635 17.1763 27.5634 18.7737C27.4918 20.3711 27.0046 21.9221 26.1499 23.2735C25.9833 23.5654 25.9351 23.9101 26.0152 24.2365C26.0953 24.5629 26.2975 24.8462 26.5802 25.0279C26.8629 25.2096 27.2045 25.276 27.5347 25.2133C27.8649 25.1506 28.1584 24.9637 28.3549 24.691C29.4399 23.0075 30.0727 21.0728 30.1924 19.0735C30.2864 17.5217 30.0733 15.9665 29.5651 14.4973C29.0568 13.028 28.2636 11.6735 27.2308 10.5114C26.198 9.34937 24.946 8.40262 23.5465 7.72547C22.147 7.04832 20.6276 6.65409 19.0755 6.56539Z" fill="#67AFAC"/>
<path d="M35.2053 19.2303C35.0272 19.0917 34.8827 18.9147 34.7827 18.7124C34.6827 18.5101 34.6297 18.2878 34.6278 18.0621C34.6229 17.8356 34.6687 17.6108 34.7618 17.4041C34.8549 17.1975 34.993 17.0142 35.1659 16.8678C35.7903 16.3299 36.239 15.6172 36.4543 14.8218C36.6695 14.0263 36.6413 13.1846 36.3734 12.4053C36.1067 11.5972 35.6016 10.8889 34.9245 10.3734C34.2474 9.85804 33.4302 9.55972 32.5803 9.51777C32.3257 9.50951 32.0762 9.44525 31.8493 9.32955C31.6225 9.21385 31.4239 9.04957 31.2678 8.84839C31.1376 8.67369 31.0458 8.47351 30.9983 8.26092C30.9509 8.04833 30.9487 7.82811 30.9921 7.61464C31.1681 6.82042 31.1035 5.99178 30.8067 5.23441C30.5098 4.47703 29.9941 3.82523 29.3253 3.36214C28.6275 2.86106 27.7981 2.57537 26.9398 2.54038C26.0814 2.5054 25.2316 2.72264 24.4953 3.16527C24.2763 3.29006 24.0345 3.36948 23.7842 3.3988C23.5339 3.42811 23.2802 3.40672 23.0384 3.33589C22.8159 3.26879 22.6098 3.15589 22.4335 3.00445C22.2572 2.853 22.1146 2.66637 22.0146 2.45652C21.6689 1.7027 21.1083 1.06771 20.4032 0.631105C19.6981 0.1945 18.8798 -0.0242933 18.0509 0.00214151C17.2091 0.00386171 16.3866 0.253826 15.6862 0.720747C14.9858 1.18767 14.4387 1.8508 14.1134 2.62714C14.0201 2.84119 13.8832 3.03345 13.7115 3.19164C13.5397 3.34983 13.3369 3.47048 13.1159 3.54589C12.8775 3.62464 12.6257 3.65477 12.3755 3.63448C12.1252 3.61419 11.8816 3.5439 11.659 3.42777C10.9062 3.01559 10.0494 2.83206 9.19381 2.89967C8.3382 2.96728 7.5209 3.28309 6.84214 3.80839C6.19598 4.29876 5.70834 4.96838 5.43995 5.73387C5.17156 6.49935 5.13429 7.32688 5.33277 8.11339C5.3984 8.33466 5.41242 8.56804 5.37373 8.79557C5.33505 9.02311 5.24471 9.23874 5.10964 9.42589C4.9617 9.62456 4.77485 9.79102 4.56049 9.91513C4.34612 10.0392 4.10872 10.1184 3.86277 10.1478C3.02169 10.2221 2.22178 10.5452 1.56497 11.0758C0.908147 11.6064 0.424152 12.3205 0.174645 13.1271C-0.0625511 13.9158 -0.0580391 14.7574 0.187599 15.5434C0.433238 16.3295 0.908737 17.0239 1.55277 17.5371C1.73089 17.6757 1.87535 17.8527 1.97536 18.055C2.07537 18.2573 2.12833 18.4796 2.13027 18.7053C2.13512 18.9319 2.08933 19.1567 1.99623 19.3633C1.90314 19.5699 1.76508 19.7532 1.59215 19.8996C0.967786 20.4375 0.519007 21.1502 0.303761 21.9456C0.088516 22.7411 0.11669 23.5828 0.384645 24.3621C0.651347 25.1702 1.15648 25.8785 1.83354 26.394C2.51061 26.9094 3.32788 27.2077 4.17777 27.2496C4.43229 27.2579 4.68186 27.3222 4.90872 27.4379C5.13558 27.5536 5.33414 27.7178 5.49027 27.919C5.62039 28.0937 5.7122 28.2939 5.75969 28.5065C5.80719 28.7191 5.8093 28.9393 5.76589 29.1528C5.58993 29.947 5.6545 30.7756 5.95137 31.533C6.24824 32.2904 6.76397 32.9422 7.43277 33.4053C8.13059 33.9064 8.95991 34.192 9.81829 34.227C10.6767 34.262 11.5265 34.0448 12.2628 33.6021C12.4817 33.4773 12.7235 33.3979 12.9738 33.3686C13.2241 33.3393 13.4778 33.3607 13.7196 33.4315C13.9422 33.4986 14.1482 33.6115 14.3245 33.763C14.5008 33.9144 14.6435 34.101 14.7434 34.3109C15.0929 35.0563 15.6506 35.6847 16.3493 36.1203C17.0479 36.5558 17.8577 36.7798 18.6809 36.7653H18.7728C19.6145 36.7635 20.4371 36.5136 21.1374 36.0467C21.8378 35.5797 22.3849 34.9166 22.7103 34.1403C22.8036 33.9262 22.9404 33.734 23.1122 33.5758C23.2839 33.4176 23.4868 33.2969 23.7078 33.2215C23.9462 33.1428 24.1979 33.1126 24.4482 33.1329C24.6984 33.1532 24.9421 33.2235 25.1646 33.3396C25.9175 33.7518 26.7742 33.9353 27.6299 33.8677C28.4855 33.8001 29.3028 33.4843 29.9815 32.959C30.6325 32.4693 31.1242 31.7982 31.3951 31.03C31.666 30.2617 31.7039 29.4306 31.504 28.6409C31.4487 28.4293 31.4399 28.2082 31.4785 27.9929C31.517 27.7776 31.6018 27.5733 31.7271 27.394C31.8751 27.1953 32.0619 27.0289 32.2763 26.9048C32.4907 26.7807 32.7281 26.7015 32.974 26.6721C33.8092 26.5781 34.5978 26.2386 35.2402 25.6967C35.8826 25.1547 36.35 24.4346 36.5834 23.6271C36.8177 22.8403 36.8118 22.0015 36.5662 21.2181C36.3207 20.4347 35.8468 19.7425 35.2053 19.2303ZM34.129 22.8921C34.0338 23.2119 33.8433 23.495 33.583 23.7037C33.3227 23.9124 33.005 24.0368 32.6721 24.0603C32.0529 24.1279 31.4551 24.3268 30.9187 24.6437C30.3824 24.9605 29.9197 25.388 29.5615 25.8978C29.2103 26.3796 28.9675 26.9317 28.8497 27.5162C28.7319 28.1007 28.7419 28.7038 28.879 29.284C28.9479 29.5782 28.9301 29.886 28.8276 30.1702C28.7251 30.4544 28.5423 30.7028 28.3015 30.8853C28.0258 31.0981 27.6943 31.2263 27.3471 31.2542C26.9999 31.2822 26.6521 31.2087 26.3459 31.0428C25.8051 30.7454 25.2079 30.565 24.5929 30.513C23.978 30.461 23.359 30.5386 22.7759 30.7409C22.1965 30.9311 21.6634 31.2409 21.2113 31.6501C20.7591 32.0593 20.3978 32.5589 20.1509 33.1165C20.0114 33.4128 19.792 33.6643 19.5173 33.8426C19.2427 34.021 18.9237 34.1191 18.5962 34.1259C18.2688 34.1327 17.946 34.048 17.6642 33.8812C17.3823 33.7145 17.1526 33.4724 17.0009 33.1821C16.7462 32.6413 16.3811 32.1598 15.929 31.7687C15.4768 31.3776 14.9478 31.0856 14.3759 30.9115C13.9509 30.7799 13.5083 30.7135 13.0634 30.7146C12.2672 30.7125 11.4859 30.9305 10.8059 31.3446C10.5077 31.5234 10.1637 31.6112 9.81633 31.5972C9.46891 31.5832 9.13315 31.4681 8.85027 31.2659C8.59581 31.0997 8.39797 30.86 8.28308 30.5787C8.1682 30.2973 8.14171 29.9877 8.20714 29.6909C8.33473 29.111 8.33509 28.5103 8.20821 27.9303C8.08132 27.3502 7.8302 26.8046 7.47215 26.3309C7.09694 25.8344 6.61885 25.4249 6.07062 25.1304C5.5224 24.8359 4.917 24.6634 4.2959 24.6246C3.96317 24.611 3.64232 24.4971 3.37535 24.2981C3.10838 24.099 2.90772 23.824 2.79965 23.509C2.70286 23.219 2.69488 22.9066 2.77672 22.612C2.85856 22.3173 3.0265 22.0539 3.25902 21.8553C3.72995 21.4626 4.10828 20.9708 4.36695 20.4149C4.62561 19.859 4.75821 19.2528 4.75527 18.6396C4.74742 18.0338 4.60567 17.4373 4.34019 16.8927C4.0747 16.3481 3.69205 15.869 3.21964 15.4896C2.97332 15.307 2.79027 15.0519 2.69613 14.7601C2.60199 14.4683 2.60147 14.1543 2.69465 13.8621C2.7899 13.5424 2.98038 13.2593 3.24068 13.0506C3.50097 12.8419 3.81871 12.7175 4.15152 12.694C4.7708 12.6263 5.36855 12.4275 5.90493 12.1106C6.4413 11.7938 6.90399 11.3662 7.26215 10.8565C7.60217 10.3695 7.83328 9.81498 7.93973 9.23064C8.04618 8.6463 8.02547 8.04588 7.87902 7.47027C7.81009 7.17611 7.82796 6.86827 7.93047 6.58406C8.03297 6.29985 8.2157 6.05147 8.45652 5.86902C8.73222 5.65619 9.06379 5.528 9.41096 5.50004C9.75813 5.47208 10.1059 5.54555 10.4121 5.71152C10.953 6.00883 11.5502 6.18933 12.1651 6.24133C12.7801 6.29333 13.3991 6.21567 13.9821 6.01339C14.5495 5.8153 15.0698 5.50199 15.5102 5.09317C15.9507 4.68434 16.3018 4.18882 16.5415 3.63777C16.6872 3.34461 16.9118 3.09794 17.1901 2.92549C17.4683 2.75305 17.7892 2.66169 18.1165 2.66169C18.4439 2.66169 18.7647 2.75305 19.043 2.92549C19.3212 3.09794 19.5458 3.34461 19.6915 3.63777C19.9462 4.17862 20.3113 4.66011 20.7635 5.05119C21.2156 5.44228 21.7446 5.73429 22.3165 5.90839C22.9066 6.08995 23.5283 6.14521 24.1411 6.07059C24.7539 5.99596 25.3442 5.79312 25.8734 5.47527C26.1705 5.29318 26.515 5.20346 26.8632 5.21748C27.2114 5.2315 27.5475 5.34863 27.829 5.55402C28.0835 5.72017 28.2813 5.95987 28.3962 6.24122C28.5111 6.52257 28.5376 6.83224 28.4721 7.12902C28.3446 7.70892 28.3442 8.30959 28.4711 8.88964C28.598 9.46969 28.8491 10.0153 29.2071 10.489C29.5824 10.9855 30.0604 11.395 30.6087 11.6895C31.1569 11.984 31.7623 12.1565 32.3834 12.1953C32.7161 12.209 33.037 12.3228 33.3039 12.5218C33.5709 12.7209 33.7716 12.9959 33.8796 13.3109C33.9764 13.601 33.9844 13.9133 33.9026 14.2079C33.8207 14.5026 33.6528 14.7661 33.4203 14.9646C32.9613 15.3635 32.5954 15.8582 32.3482 16.4137C32.101 16.9693 31.9786 17.5723 31.9896 18.1803C31.9975 18.7861 32.1392 19.3826 32.4047 19.9272C32.6702 20.4718 33.0529 20.9509 33.5253 21.3303C33.7729 21.4982 33.9634 21.7377 34.0713 22.0168C34.1792 22.2959 34.1993 22.6013 34.129 22.8921Z" fill="#67AFAC"/>
<path d="M22.6965 14.8196L17.0659 20.4633L14.0603 17.4446C13.9379 17.3222 13.7926 17.2251 13.6327 17.1589C13.4729 17.0927 13.3015 17.0586 13.1284 17.0586C12.9554 17.0586 12.784 17.0927 12.6241 17.1589C12.4642 17.2251 12.3189 17.3222 12.1965 17.4446C12.0742 17.567 11.9771 17.7122 11.9109 17.8721C11.8446 18.032 11.8105 18.2034 11.8105 18.3765C11.8105 18.5495 11.8446 18.7209 11.9109 18.8808C11.9771 19.0407 12.0742 19.186 12.1965 19.3083L16.134 23.2458C16.2561 23.3689 16.4012 23.4665 16.5612 23.5331C16.7211 23.5998 16.8927 23.6341 17.0659 23.6341C17.2392 23.6341 17.4107 23.5998 17.5707 23.5331C17.7306 23.4665 17.8758 23.3689 17.9978 23.2458L24.5603 16.6833C24.6827 16.561 24.7797 16.4157 24.846 16.2558C24.9122 16.0959 24.9463 15.9245 24.9463 15.7515C24.9463 15.5784 24.9122 15.407 24.846 15.2471C24.7797 15.0872 24.6827 14.942 24.5603 14.8196C24.4379 14.6972 24.2926 14.6001 24.1327 14.5339C23.9729 14.4677 23.8015 14.4336 23.6284 14.4336C23.4554 14.4336 23.284 14.4677 23.1241 14.5339C22.9642 14.6001 22.8189 14.6972 22.6965 14.8196Z" fill="#67AFAC"/>
</svg>
