<svg width="42" height="42" viewBox="0 0 42 42" fill="none" xmlns="http://www.w3.org/2000/svg">
<path d="M35.7 11.8133H29.6888H29.7806C30.5749 11.5306 31.277 11.0365 31.8113 10.3843C32.3456 9.7321 32.6917 8.94646 32.8125 8.11205C33.0129 7.02079 32.8184 5.89384 32.2639 4.93286C31.7093 3.97187 30.8309 3.23958 29.7858 2.86701C28.7408 2.49445 27.5972 2.50592 26.5598 2.89939C25.5224 3.29286 24.6589 4.04263 24.1237 5.01455L21 10.5008L17.9419 5.01455C17.3959 4.06034 16.5317 3.3285 15.5006 2.94708C14.4695 2.56566 13.3371 2.55895 12.3016 2.92812C11.266 3.29729 10.3933 4.01883 9.83597 4.9665C9.27869 5.91417 9.07237 7.02763 9.25313 8.11205C9.36817 8.93902 9.70455 9.71952 10.2267 10.371C10.7488 11.0226 11.4373 11.5209 12.2194 11.8133H12.3113H6.3C5.67449 11.8167 5.07558 12.0668 4.63327 12.5091C4.19096 12.9514 3.94095 13.5503 3.9375 14.1758V17.3258C3.94095 17.9513 4.19096 18.5502 4.63327 18.9925C5.07558 19.4348 5.67449 19.6849 6.3 19.6883H6.5625V35.5039C6.57972 36.5368 7.00215 37.5215 7.73871 38.2458C8.47528 38.9701 9.46698 39.3759 10.5 39.3758H31.6313C32.6414 39.3422 33.5999 38.9215 34.3084 38.2008C35.017 37.4801 35.4212 36.5145 35.4375 35.5039V19.6883H35.7C36.3255 19.6849 36.9244 19.4348 37.3667 18.9925C37.809 18.5502 38.0591 17.9513 38.0625 17.3258V14.1758C38.0591 13.5503 37.809 12.9514 37.3667 12.5091C36.9244 12.0668 36.3255 11.8167 35.7 11.8133ZM26.355 6.3008C26.4967 6.03271 26.6962 5.79944 26.9391 5.61785C27.182 5.43627 27.4621 5.3109 27.7594 5.2508C27.8859 5.2379 28.0135 5.2379 28.14 5.2508C28.6184 5.24156 29.0843 5.4046 29.4525 5.71018C29.7393 5.94604 29.9584 6.25374 30.0875 6.6019C30.2167 6.95005 30.2511 7.32622 30.1875 7.69205C30.1351 8.05623 29.9856 8.39956 29.7546 8.68596C29.5237 8.97235 29.2198 9.19122 28.875 9.31955L23.5069 11.3539L26.355 6.3008ZM11.8125 7.69205C11.7504 7.32504 11.7869 6.94811 11.9184 6.59987C12.0498 6.25162 12.2715 5.94458 12.5606 5.71018C12.93 5.40664 13.3951 5.24388 13.8731 5.2508C13.9997 5.2379 14.1272 5.2379 14.2537 5.2508C14.5474 5.30653 14.8253 5.42589 15.0679 5.60048C15.3106 5.77508 15.512 6.00067 15.6581 6.26143L18.5063 11.3146L13.125 9.31955C12.7802 9.19122 12.4763 8.97235 12.2454 8.68596C12.0144 8.39956 11.8649 8.05623 11.8125 7.69205ZM6.5625 14.4383H17.0625V17.0633H6.5625V14.4383ZM19.6875 36.7508V23.6258C19.6875 23.2777 19.5492 22.9439 19.3031 22.6977C19.0569 22.4516 18.7231 22.3133 18.375 22.3133C18.0269 22.3133 17.6931 22.4516 17.4469 22.6977C17.2008 22.9439 17.0625 23.2777 17.0625 23.6258V36.7508H10.5C10.3304 36.7617 10.1603 36.7374 10.0005 36.6794C9.84074 36.6215 9.69464 36.5311 9.57141 36.414C9.44817 36.297 9.35046 36.1557 9.2844 35.9991C9.21833 35.8425 9.18534 35.6739 9.1875 35.5039V19.6883H18.375C18.7231 19.6883 19.0569 19.55 19.3031 19.3039C19.5492 19.0577 19.6875 18.7239 19.6875 18.3758V14.4383H22.3125V36.7508H19.6875ZM35.4375 17.0633H28.875C28.5269 17.0633 28.1931 17.2016 27.9469 17.4477C27.7008 17.6939 27.5625 18.0277 27.5625 18.3758C27.5625 18.7239 27.7008 19.0577 27.9469 19.3039C28.1931 19.55 28.5269 19.6883 28.875 19.6883H32.8125V35.5039C32.8143 35.6682 32.7832 35.8311 32.7212 35.9832C32.6591 36.1352 32.5673 36.2734 32.4512 36.3895C32.3351 36.5056 32.1969 36.5974 32.0449 36.6595C31.8928 36.7215 31.7299 36.7526 31.5656 36.7508H24.9375V14.4383H35.4375V17.0633Z" fill="#67AFAC"/>
</svg>
